<?xml version="1.0" standalone="no"?>
<!DOCTYPE svg PUBLIC "-//W3C//DTD SVG 20010904//EN"
 "http://www.w3.org/TR/2001/REC-SVG-20010904/DTD/svg10.dtd">
<svg version="1.0" xmlns="http://www.w3.org/2000/svg"
 width="1842.000000pt" height="2304.000000pt" viewBox="0 0 1842.000000 2304.000000"
 preserveAspectRatio="xMidYMid meet">

<g transform="translate(0.000000,2304.000000) scale(0.100000,-0.100000)"
fill="#000000" stroke="none">
<path d="M7820 16598 c0 -662 0 -2134 0 -3272 -1 -1138 2 -2071 5 -2075 7 -6
75 28 160 81 33 21 65 38 72 38 6 0 13 3 15 8 2 4 46 31 98 61 52 29 111 64
130 76 32 20 142 83 350 200 41 24 129 73 195 110 66 37 132 75 146 84 89 54
242 141 248 141 4 0 17 9 29 20 12 11 23 19 24 18 3 -2 39 18 343 194 110 64
212 122 228 129 15 7 27 16 27 21 0 4 5 8 11 8 11 0 228 123 436 247 40 24 75
43 78 43 3 0 28 16 55 35 27 19 54 35 60 35 6 0 27 11 48 23 20 13 69 42 107
64 39 23 120 70 180 106 61 36 122 71 138 78 15 7 27 16 27 20 0 4 12 12 28
18 15 6 50 25 77 41 28 17 72 42 99 56 27 15 56 32 64 40 7 8 19 14 25 14 7 0
40 18 75 40 34 22 65 40 67 40 3 0 36 20 73 44 83 53 211 126 221 126 4 0 8
-2672 10 -5937 1 -3265 4 -5939 7 -5942 9 -10 1659 -7 1672 2 10 8 12 120 12
521 0 281 0 3186 0 6455 0 3269 -2 5947 -6 5950 -3 3 -25 17 -49 31 -24 14
-102 58 -172 99 -70 41 -168 97 -218 123 -49 27 -119 67 -155 88 -36 22 -96
58 -135 80 -38 23 -83 49 -100 60 -16 10 -46 27 -65 38 -19 11 -51 28 -70 39
-131 76 -167 96 -185 104 -11 6 -45 25 -75 44 -30 18 -82 49 -115 68 -33 18
-121 69 -195 112 -74 43 -184 106 -245 140 -150 85 -402 231 -505 294 -47 28
-91 51 -97 51 -7 0 -13 5 -13 10 0 6 -4 10 -9 10 -5 0 -46 23 -91 51 -45 28
-89 53 -98 56 -10 4 -19 9 -22 12 -3 3 -21 14 -40 24 -58 29 -166 91 -181 103
-8 7 -41 26 -73 43 -33 17 -64 35 -70 40 -6 4 -31 19 -56 32 -25 13 -47 26
-50 29 -8 9 -122 75 -180 106 -30 16 -57 31 -60 34 -4 4 -22 15 -95 54 -10 6
-25 17 -33 23 -7 7 -24 16 -38 19 -13 3 -24 9 -24 13 0 3 -19 15 -43 26 -23
11 -44 23 -47 26 -3 4 -30 19 -60 34 -29 15 -65 35 -80 45 -36 24 -135 82
-200 116 -30 16 -64 37 -74 47 -11 9 -23 17 -27 17 -4 0 -46 23 -94 50 -48 28
-91 50 -96 50 -5 0 -9 4 -9 9 0 5 -10 13 -22 17 -20 6 -81 41 -144 82 -10 7
-32 19 -49 28 -16 8 -39 21 -50 27 -11 7 -56 32 -100 56 -44 24 -98 56 -120
71 -22 15 -65 40 -95 56 -48 25 -76 41 -175 101 -11 6 -69 40 -130 74 -152 86
-225 129 -257 151 -15 10 -29 18 -31 18 -2 0 -42 22 -89 49 -47 27 -95 52
-106 55 l-22 7 0 -1203z"/>
<path d="M10475 11466 c-77 -46 -172 -100 -210 -121 -39 -20 -81 -45 -95 -55
-14 -9 -72 -44 -130 -77 -58 -33 -181 -104 -275 -158 -93 -55 -199 -115 -235
-135 -36 -20 -123 -70 -195 -111 -71 -42 -139 -81 -150 -87 -11 -6 -78 -46
-150 -88 -71 -43 -204 -120 -295 -172 -208 -120 -302 -174 -519 -300 -95 -56
-176 -102 -178 -102 -3 0 -64 -35 -136 -78 -73 -43 -157 -91 -187 -106 -30
-16 -62 -35 -71 -42 -8 -8 -19 -14 -23 -14 -3 0 -50 -26 -104 -59 -112 -67
-371 -217 -482 -279 -25 -14 -85 -49 -135 -77 -49 -29 -113 -66 -140 -82 -102
-58 -271 -155 -315 -182 -25 -15 -70 -41 -100 -58 -96 -52 -441 -253 -484
-281 -65 -43 -80 -52 -96 -59 -27 -12 -333 -186 -420 -238 -47 -29 -130 -78
-185 -110 -55 -32 -117 -68 -137 -81 l-37 -23 2 -3333 2 -3333 2820 0 2820 0
0 4959 c0 3297 -3 4960 -10 4963 -5 1 -73 -35 -150 -81z"/>
<path d="M14498 9303 c-9 -35 -7 -7646 1 -7662 8 -15 109 -16 1168 -15 l1158
0 2 1685 c4 3034 3 4660 -2 4669 -3 5 -29 22 -58 38 -28 16 -110 62 -182 104
-71 41 -189 109 -262 151 -73 42 -151 89 -175 104 -24 15 -52 32 -63 39 -11 6
-56 31 -100 56 -44 26 -154 89 -245 140 -91 52 -199 115 -240 140 -106 64
-250 148 -254 148 -2 0 -42 23 -90 50 -48 28 -89 50 -91 50 -2 0 -23 13 -47
29 -24 16 -79 49 -123 73 -44 25 -109 62 -145 83 -100 58 -240 135 -244 135
-2 0 -6 -8 -8 -17z"/>
<path d="M3901 4495 c-19 -13 -47 -27 -63 -30 -15 -4 -28 -10 -28 -15 0 -5
-33 -27 -72 -49 -40 -23 -91 -53 -113 -66 -22 -14 -65 -37 -95 -52 -30 -14
-66 -34 -80 -43 -14 -10 -47 -30 -74 -46 -27 -16 -65 -39 -85 -51 -20 -12 -43
-25 -51 -30 -24 -11 -239 -136 -305 -176 -33 -20 -64 -37 -69 -37 -5 0 -17 -6
-25 -14 -9 -7 -45 -29 -81 -48 -36 -20 -87 -48 -115 -64 -27 -15 -59 -33 -70
-39 -11 -6 -39 -23 -63 -38 -23 -15 -69 -41 -102 -58 -33 -17 -60 -33 -60 -37
0 -4 -10 -12 -23 -18 -12 -6 -42 -22 -66 -34 -25 -12 -51 -28 -59 -36 -7 -8
-18 -14 -24 -14 -6 0 -19 -6 -27 -14 -9 -8 -45 -30 -81 -49 -101 -54 -224
-125 -237 -137 -7 -5 -17 -10 -23 -10 -5 0 -10 -4 -10 -9 0 -5 -12 -14 -27
-20 -16 -6 -46 -22 -68 -36 -22 -14 -48 -28 -57 -32 -10 -3 -18 -15 -19 -27
-6 -148 -4 -1515 1 -1526 8 -14 133 -16 1169 -18 l1161 -1 1 697 c0 612 0
1477 -1 2025 0 195 0 194 -59 152z"/>
</g>
</svg>
